{"title":"Mulholland Drive.[x264][AC3(5.1)] Nordic_Sub.mkv","uid":5272361,"size":1252194540,"categoryP":"video","categoryS":"movies","magnet":"?xt=urn:btih:31ec758d12840786a3c70c58d7c07768a850f3bd&amp;dn=Mulholland+Drive.%5Bx264%5D%5BAC3%285.1%29%5D+Nordic_Sub.mkv&amp;tr=udp%3A%2F%2Ftracker.openbittorrent.com%3A80&amp;tr=udp%3A%2F%2Fopen.demonii.com%3A1337&amp;tr=udp%3A%2F%2Ftracker.coppersurfer.tk%3A6969&amp;tr=udp%3A%2F%2Fexodus.desync.com%3A6969","seeders":0,"leechers":1,"uploader":"Zen_Bud","files":-1,"time":1263281247,"description":"General\nComplete name                    : Mulholland Dr. (2001).mkv\nFormat                           : Matroska\nFile size                        : 1.17 GiB\nDuration                         : 2h 20mn\nOverall bit rate                 : 1 187 Kbps\n\n\nVideo\nID                               : 1\nFormat                           : AVC\nDuration                         : 2h 20mn\nBit rate                         : 716 Kbps\nWidth                            : 716 pixels\nHeight                           : 556 pixels\nDisplay aspect ratio             : 16:9\nFrame rate                       : 25.000 fps\nResolution                       : 8 bits\nColorimetry                      : 4:2:0\nScan type                        : Progressive\nBits/(Pixel*Frame)               : 0.072\nStream size                      : 720 MiB (60%)\nWriting library                  : x264 core 79\n\n\nAudio\nID                               : 2\nFormat                           : AC-3\nFormat/Info                      : Audio Coding 3\nCodec ID                         : A_AC3\nDuration                         : 2h 20mn\nBit rate mode                    : Constant\nBit rate                         : 448 Kbps\nChannel(s)                       : 6 channels\nChannel positions                : Front: L C R, Surround: L R, LFE\nSampling rate                    : 48.0 KHz\nStream size                      : 451 MiB (38%)\n\nText #1\nLanguage                         : Danish\n\nText #2\nLanguage                         : Finnish\n\nText #3\nLanguage                         : Norwegian\n\nText #4\nLanguage                         : Swedish\n\n\n\n\n\n\n\n","torrent":{"xt":"urn:btih:31ec758d12840786a3c70c58d7c07768a850f3bd","amp;dn":"Mulholland+Drive.%5Bx264%5D%5BAC3%285.1%29%5D+Nordic_Sub.mkv","amp;tr":["udp%3A%2F%2Ftracker.openbittorrent.com%3A80","udp%3A%2F%2Fopen.demonii.com%3A1337","udp%3A%2F%2Ftracker.coppersurfer.tk%3A6969","udp%3A%2F%2Fexodus.desync.com%3A6969"],"infoHash":"31ec758d12840786a3c70c58d7c07768a850f3bd","infoHashBuffer":{"type":"Buffer","data":[49,236,117,141,18,132,7,134,163,199,12,88,215,192,119,104,168,80,243,189]},"announce":[],"urlList":[]}}